<?xml version="1.0" encoding="iso-8859-1"?>
<!-- Generator: Adobe Illustrator 19.0.0, SVG Export Plug-In . SVG Version: 6.00 Build 0)  -->
<svg version="1.1" id="Capa_1" xmlns="http://www.w3.org/2000/svg" xmlns:xlink="http://www.w3.org/1999/xlink" x="0px" y="0px"
	 viewBox="0 0 512 512" style="enable-background:new 0 0 512 512; fill: #e5e338;" xml:space="preserve">
<g>
	<g>
		<g>
			<path d="M256,0C114.615,0,0,114.615,0,256s114.615,256,256,256s256-114.615,256-256C511.833,114.685,397.315,0.167,256,0z
				 M384,72.432c50.342,35.155,84.047,89.433,93.232,150.144L384,284.8V72.432z M256,32c33.236,0.038,66.041,7.528,96,21.92v108.176
				L178.272,46.192C203.126,36.858,229.451,32.051,256,32z M352,200.56v105.52l-93.792,62.544L160,310.848V193.392l98.368-55.296
				L352,200.56z M144.4,62.064l84.112,56.112L34.016,227.52C42.989,158.169,83.812,96.979,144.4,62.064z M128,439.568
				c-57.352-40.007-92.698-104.53-95.536-174.4L128,211.392V439.568z M256,480c-33.236-0.038-66.041-7.528-96-21.92V347.968
				L349.344,459.36C320.093,472.925,288.243,479.968,256,480z M381.696,441.28L381.696,441.28l-92.8-54.624l190.992-127.36
				C478.812,332.345,442.16,400.274,381.696,441.28z"/>
			<rect x="208" y="240" width="32" height="32" fill="#4EC5C1"/>
			<rect x="272" y="240" width="32" height="32" fill="#4EC5C1"/>
		</g>
	</g>
</g>
<g>
</g>
<g>
</g>
<g>
</g>
<g>
</g>
<g>
</g>
<g>
</g>
<g>
</g>
<g>
</g>
<g>
</g>
<g>
</g>
<g>
</g>
<g>
</g>
<g>
</g>
<g>
</g>
<g>
</g>
</svg>
